<svg xmlns="http://www.w3.org/2000/svg" viewBox="0 0 512 512">
  <path fill-rule="evenodd" d="M256 6.32c-141.36 0-256 114.61-256 256 0 113.1 73.35 209.07 175.07 242.92 12.8 2.37 17.49-5.56 17.49-12.32 0-6.1-.24-26.27-.35-47.66-71.22 15.49-86.25-30.2-86.25-30.2-11.64-29.6-28.42-37.46-28.42-37.46-23.23-15.9 1.75-15.56 1.75-15.56 25.7 1.8 39.24 26.38 39.24 26.38 22.83 39.13 59.9 27.82 74.5 21.28 2.3-16.54 8.93-27.84 16.25-34.23-56.86-6.48-116.63-28.43-116.63-126.52 0-27.95 10-50.79 26.38-68.71-2.66-6.45-11.43-32.5 2.48-67.75 0 0 21.5-6.88 70.41 26.24 20.42-5.67 42.32-8.52 64.08-8.62 21.75.1 43.67 2.95 64.13 8.62 48.86-33.12 70.33-26.24 70.33-26.24 13.94 35.26 5.17 61.3 2.51 67.75 16.42 17.92 26.35 40.76 26.35 68.7 0 98.34-59.89 119.98-116.9 126.32 9.19 7.95 17.37 23.53 17.37 47.4 0 34.26-.3 61.83-.3 70.26 0 6.82 4.61 14.8 17.59 12.29 101.66-33.9 174.92-129.82 174.92-242.89 0-141.39-114.62-256-256-256z" clip-rule="evenodd"/>
  <path d="M96.96 373.88c-.56 1.27-2.57 1.66-4.39.78-1.86-.84-2.9-2.57-2.3-3.85.55-1.3 2.56-1.67 4.41-.8 1.86.84 2.92 2.6 2.28 3.87z"/>
  <path d="M107.33 385.45c-1.22 1.13-3.6.6-5.23-1.19-1.67-1.78-1.98-4.17-.75-5.32 1.26-1.13 3.58-.6 5.25 1.19 1.68 1.8 2 4.17.73 5.32z"/>
  <path d="M117.43 400.19c-1.57 1.1-4.14.07-5.73-2.2-1.57-2.29-1.57-5.02.04-6.11 1.59-1.1 4.12-.1 5.72 2.15 1.57 2.31 1.57 5.05-.03 6.16z"/>
  <path d="M131.25 414.43c-1.4 1.55-4.4 1.13-6.58-.98-2.24-2.06-2.86-5-1.45-6.54 1.42-1.55 4.43-1.11 6.63.98 2.22 2.06 2.9 5.01 1.4 6.54z"/>
  <path d="M150.33 422.7c-.62 2-3.5 2.92-6.4 2.07-2.9-.88-4.79-3.23-4.2-5.25.6-2.02 3.5-2.97 6.41-2.06 2.9.87 4.79 3.2 4.19 5.25z"/>
  <path d="M171.28 424.24c.07 2.1-2.39 3.86-5.43 3.9-3.06.07-5.54-1.64-5.57-3.72 0-2.13 2.4-3.86 5.46-3.92 3.05-.06 5.54 1.64 5.54 3.74z"/>
  <path d="M190.78 420.92c.36 2.06-1.75 4.17-4.78 4.74-2.97.54-5.72-.73-6.1-2.77-.37-2.11 1.78-4.23 4.75-4.78 3.03-.52 5.74.72 6.13 2.81z"/>
</svg>
